<svg width="37" height="36" viewBox="0 0 37 36" fill="none" xmlns="http://www.w3.org/2000/svg">
<path d="M0.408203 18C0.408203 8.05887 8.46708 0 18.4082 0V0C28.3493 0 36.4082 8.05887 36.4082 18V18C36.4082 27.9411 28.3493 36 18.4082 36V36C8.46708 36 0.408203 27.9411 0.408203 18V18Z" fill="url(#paint0_linear_222_1267)"/>
<path d="M24.2414 19.6667C25.483 18.45 26.7414 16.9917 26.7414 15.0833C26.7414 13.8678 26.2585 12.702 25.3989 11.8424C24.5394 10.9829 23.3736 10.5 22.158 10.5C20.6914 10.5 19.658 10.9167 18.408 12.1667C17.158 10.9167 16.1247 10.5 14.658 10.5C13.4425 10.5 12.2767 10.9829 11.4171 11.8424C10.5576 12.702 10.0747 13.8678 10.0747 15.0833C10.0747 17 11.3247 18.4583 12.5747 19.6667L18.408 25.5L24.2414 19.6667Z" stroke="white" stroke-width="2" stroke-linecap="round" stroke-linejoin="round"/>
<defs>
<linearGradient id="paint0_linear_222_1267" x1="0.408203" y1="18" x2="36.4082" y2="18" gradientUnits="userSpaceOnUse">
<stop stop-color="#4F46E5"/>
<stop offset="1" stop-color="#8B5CF6"/>
</linearGradient>
</defs>
</svg>
